<svg width="36" height="34" viewBox="0 0 36 34" fill="none" xmlns="http://www.w3.org/2000/svg">
<g clip-path="url(#clip0_22_64)">
<path d="M11.1334 17.076C9.1127 17.1383 7.45998 17.936 6.17522 19.4692H3.66808C2.64526 19.4692 1.7846 19.2168 1.08609 18.7119C0.387584 18.2071 0.0383301 17.4686 0.0383301 16.4964C0.0383301 12.0964 0.811678 9.89648 2.35837 9.89648C2.43321 9.89648 2.70451 10.0274 3.17226 10.2891C3.64001 10.5509 4.24809 10.8157 4.99649 11.0837C5.74489 11.3517 6.48706 11.4857 7.22298 11.4857C8.0587 11.4857 8.88818 11.3424 9.71142 11.0557C9.64905 11.5169 9.61787 11.9282 9.61787 12.2896C9.61787 14.0222 10.123 15.6177 11.1334 17.076ZM31.1718 28.9858C31.1718 30.4815 30.7166 31.6625 29.806 32.5288C28.8954 33.3951 27.6855 33.8282 26.1763 33.8282H9.82368C8.3144 33.8282 7.10449 33.3951 6.19393 32.5288C5.28338 31.6625 4.8281 30.4815 4.8281 28.9858C4.8281 28.3251 4.84993 27.6801 4.89358 27.0507C4.93724 26.4212 5.02455 25.7419 5.15552 25.0127C5.2865 24.2836 5.45177 23.6074 5.65134 22.9841C5.85091 22.3609 6.11909 21.7533 6.45587 21.1612C6.79265 20.5691 7.17933 20.0643 7.61589 19.6468C8.05246 19.2292 8.5857 18.8958 9.2156 18.6465C9.84551 18.3972 10.5409 18.2726 11.3018 18.2726C11.4265 18.2726 11.6947 18.4066 12.1063 18.6746C12.5179 18.9425 12.9732 19.2417 13.4721 19.572C13.9711 19.9023 14.6384 20.2014 15.4741 20.4694C16.3098 20.7374 17.1518 20.8714 18 20.8714C18.8482 20.8714 19.6901 20.7374 20.5258 20.4694C21.3615 20.2014 22.0289 19.9023 22.5278 19.572C23.0267 19.2417 23.482 18.9425 23.8936 18.6746C24.3052 18.4066 24.5734 18.2726 24.6982 18.2726C25.459 18.2726 26.1544 18.3972 26.7843 18.6465C27.4142 18.8958 27.9475 19.2292 28.384 19.6468C28.8206 20.0643 29.2073 20.5691 29.5441 21.1612C29.8808 21.7533 30.149 22.3609 30.3486 22.9841C30.5482 23.6074 30.7134 24.2836 30.8444 25.0127C30.9754 25.7419 31.0627 26.4212 31.1063 27.0507C31.15 27.6801 31.1718 28.3251 31.1718 28.9858ZM12.0128 5.11013C12.0128 6.43136 11.545 7.5594 10.6095 8.49423C9.674 9.42906 8.54516 9.89648 7.22298 9.89648C5.90081 9.89648 4.77197 9.42906 3.83647 8.49423C2.90097 7.5594 2.43321 6.43136 2.43321 5.11013C2.43321 3.7889 2.90097 2.66087 3.83647 1.72604C4.77197 0.791208 5.90081 0.323792 7.22298 0.323792C8.54516 0.323792 9.674 0.791208 10.6095 1.72604C11.545 2.66087 12.0128 3.7889 12.0128 5.11013ZM25.1846 12.2896C25.1846 14.2715 24.483 15.9635 23.0797 17.3658C21.6765 18.768 19.9832 19.4692 18 19.4692C16.0167 19.4692 14.3234 18.768 12.9202 17.3658C11.5169 15.9635 10.8153 14.2715 10.8153 12.2896C10.8153 10.3078 11.5169 8.61576 12.9202 7.21351C14.3234 5.81126 16.0167 5.11013 18 5.11013C19.9832 5.11013 21.6765 5.81126 23.0797 7.21351C24.483 8.61576 25.1846 10.3078 25.1846 12.2896ZM35.9616 16.4964C35.9616 17.4686 35.6123 18.2071 34.9138 18.7119C34.2153 19.2168 33.3547 19.4692 32.3319 19.4692H29.8247C28.54 17.936 26.8872 17.1383 24.8665 17.076C25.8769 15.6177 26.3821 14.0222 26.3821 12.2896C26.3821 11.9282 26.3509 11.5169 26.2885 11.0557C27.1118 11.3424 27.9412 11.4857 28.7769 11.4857C29.5129 11.4857 30.255 11.3517 31.0034 11.0837C31.7518 10.8157 32.3599 10.5509 32.8277 10.2891C33.2954 10.0274 33.5667 9.89648 33.6416 9.89648C35.1883 9.89648 35.9616 12.0964 35.9616 16.4964ZM33.5667 5.11013C33.5667 6.43136 33.099 7.5594 32.1635 8.49423C31.228 9.42906 30.0991 9.89648 28.7769 9.89648C27.4548 9.89648 26.3259 9.42906 25.3904 8.49423C24.4549 7.5594 23.9872 6.43136 23.9872 5.11013C23.9872 3.7889 24.4549 2.66087 25.3904 1.72604C26.3259 0.791208 27.4548 0.323792 28.7769 0.323792C30.0991 0.323792 31.228 0.791208 32.1635 1.72604C33.099 2.66087 33.5667 3.7889 33.5667 5.11013Z" fill="#FF6600"/>
</g>
<defs>
<clipPath id="clip0_22_64">
<rect width="36" height="34" fill="white"/>
</clipPath>
</defs>
</svg>
