<svg width="36" height="36" viewBox="0 0 36 36" fill="none" xmlns="http://www.w3.org/2000/svg">
<g clip-path="url(#clip0_22_76)">
<path fill-rule="evenodd" clip-rule="evenodd" d="M3.85714 0C2.83416 0 1.85309 0.406376 1.12973 1.12973C0.406376 1.85309 0 2.83417 0 3.85714L0 19.2857C0 20.3087 0.406376 21.2898 1.12973 22.0131C1.85309 22.7365 2.83416 23.1429 3.85714 23.1429H32.1429C33.1658 23.1429 34.1469 22.7365 34.8703 22.0131C35.5936 21.2898 36 20.3087 36 19.2857V3.85714C36 2.83417 35.5936 1.85309 34.8703 1.12973C34.1469 0.406376 33.1658 0 32.1429 0L3.85714 0ZM19.6071 3.73886C19.6071 3.31262 19.4378 2.90383 19.1364 2.60244C18.835 2.30104 18.4262 2.13171 18 2.13171C17.5738 2.13171 17.165 2.30104 16.8636 2.60244C16.5622 2.90383 16.3929 3.31262 16.3929 3.73886V4.76743C15.4674 4.87587 14.6104 5.3088 13.974 5.98933C13.3376 6.66987 12.963 7.55394 12.9168 8.48453C12.8705 9.41512 13.1556 10.332 13.7214 11.0723C14.2872 11.8126 15.097 12.3283 16.0071 12.528L19.0851 13.1991C19.3329 13.2462 19.5539 13.3848 19.7041 13.5875C19.8542 13.7902 19.9224 14.042 19.8952 14.2928C19.8679 14.5435 19.7472 14.7748 19.557 14.9405C19.3669 15.1062 19.1213 15.1942 18.8691 15.1869H17.1309C16.9229 15.1876 16.7199 15.1236 16.5499 15.0038C16.3799 14.884 16.2513 14.7144 16.182 14.5183C16.0301 14.1301 15.7332 13.8161 15.3541 13.6426C14.975 13.4691 14.5433 13.4498 14.1502 13.5886C13.7571 13.7274 13.4333 14.0136 13.2472 14.3866C13.0612 14.7597 13.0273 15.1905 13.1529 15.588C13.6517 17.0023 14.8834 18.0694 16.3929 18.3369V19.404C16.3929 19.8302 16.5622 20.239 16.8636 20.5404C17.165 20.8418 17.5738 21.0111 18 21.0111C18.4262 21.0111 18.835 20.8418 19.1364 20.5404C19.4378 20.239 19.6071 19.8302 19.6071 19.404V18.3343C20.5692 18.1638 21.4423 17.6648 22.0774 16.9223C22.7125 16.1799 23.0704 15.24 23.0898 14.2632C23.1092 13.2863 22.789 12.333 22.1839 11.5659C21.5788 10.7988 20.7262 10.2654 19.7717 10.0569L16.6937 9.38572C16.5183 9.3489 16.3628 9.24822 16.2575 9.10321C16.1522 8.9582 16.1045 8.77922 16.1237 8.60102C16.143 8.42283 16.2277 8.25814 16.3616 8.13894C16.4954 8.01974 16.6688 7.95454 16.848 7.956H18.8691C19.0771 7.95531 19.2801 8.01928 19.4501 8.13906C19.6201 8.25884 19.7487 8.42851 19.818 8.62457C19.8829 8.83016 19.9886 9.02058 20.1286 9.1845C20.2686 9.34842 20.4402 9.48248 20.6331 9.57872C20.8261 9.67496 21.0364 9.73139 21.2516 9.74467C21.4667 9.75795 21.6824 9.72779 21.8857 9.656C22.089 9.58421 22.2757 9.47225 22.4349 9.32679C22.594 9.18133 22.7222 9.00534 22.8119 8.8093C22.9016 8.61325 22.951 8.40116 22.957 8.18565C22.9631 7.97015 22.9257 7.75562 22.8471 7.55486C22.5987 6.8509 22.1679 6.22551 21.5986 5.74256C21.0294 5.25961 20.3422 4.93642 19.6071 4.806V3.73886ZM7.07143 9.64286C7.58292 9.64286 8.07346 9.84605 8.43513 10.2077C8.79681 10.5694 9 11.0599 9 11.5714C9 12.0829 8.79681 12.5735 8.43513 12.9351C8.07346 13.2968 7.58292 13.5 7.07143 13.5C6.55994 13.5 6.0694 13.2968 5.70772 12.9351C5.34605 12.5735 5.14286 12.0829 5.14286 11.5714C5.14286 11.0599 5.34605 10.5694 5.70772 10.2077C6.0694 9.84605 6.55994 9.64286 7.07143 9.64286ZM28.9286 9.64286C29.4401 9.64286 29.9306 9.84605 30.2923 10.2077C30.654 10.5694 30.8571 11.0599 30.8571 11.5714C30.8571 12.0829 30.654 12.5735 30.2923 12.9351C29.9306 13.2968 29.4401 13.5 28.9286 13.5C28.4171 13.5 27.9265 13.2968 27.5649 12.9351C27.2032 12.5735 27 12.0829 27 11.5714C27 11.0599 27.2032 10.5694 27.5649 10.2077C27.9265 9.84605 28.4171 9.64286 28.9286 9.64286ZM11.5714 25.3929C12.4586 25.3929 13.1786 26.1129 13.1786 27V32.1429C13.1786 32.5691 13.0092 32.9779 12.7079 33.2793C12.4065 33.5807 11.9977 33.75 11.5714 33.75C11.1452 33.75 10.7364 33.5807 10.435 33.2793C10.1336 32.9779 9.96429 32.5691 9.96429 32.1429V27C9.96429 26.1129 10.6843 25.3929 11.5714 25.3929ZM26.0357 27C26.0357 26.7889 25.9941 26.58 25.9134 26.385C25.8326 26.19 25.7142 26.0128 25.565 25.8636C25.4158 25.7143 25.2386 25.596 25.0436 25.5152C24.8486 25.4344 24.6396 25.3929 24.4286 25.3929C24.2175 25.3929 24.0085 25.4344 23.8135 25.5152C23.6186 25.596 23.4414 25.7143 23.2921 25.8636C23.1429 26.0128 23.0245 26.19 22.9438 26.385C22.863 26.58 22.8214 26.7889 22.8214 27V32.1429C22.8214 32.3539 22.863 32.5629 22.9438 32.7579C23.0245 32.9529 23.1429 33.13 23.2921 33.2793C23.4414 33.4285 23.6186 33.5469 23.8135 33.6277C24.0085 33.7084 24.2175 33.75 24.4286 33.75C24.6396 33.75 24.8486 33.7084 25.0436 33.6277C25.2386 33.5469 25.4158 33.4285 25.565 33.2793C25.7142 33.13 25.8326 32.9529 25.9134 32.7579C25.9941 32.5629 26.0357 32.3539 26.0357 32.1429V27ZM19.6071 28.9286C19.6071 28.5023 19.4378 28.0935 19.1364 27.7922C18.835 27.4908 18.4262 27.3214 18 27.3214C17.5738 27.3214 17.165 27.4908 16.8636 27.7922C16.5622 28.0935 16.3929 28.5023 16.3929 28.9286V34.0714C16.3929 34.4977 16.5622 34.9065 16.8636 35.2079C17.165 35.5093 17.5738 35.6786 18 35.6786C18.4262 35.6786 18.835 35.5093 19.1364 35.2079C19.4378 34.9065 19.6071 34.4977 19.6071 34.0714V28.9286Z" fill="#FF6600"/>
</g>
<defs>
<clipPath id="clip0_22_76">
<rect width="36" height="36" fill="white"/>
</clipPath>
</defs>
</svg>
