<svg width="36" height="36" viewBox="0 0 36 36" fill="none" xmlns="http://www.w3.org/2000/svg">
<g clip-path="url(#clip0_22_82)">
<path d="M22.5 6.75H13.5L10.1672 1.75078C9.66797 0.998437 10.2023 0 11.1023 0H24.8977C25.7977 0 26.332 0.998437 25.8328 1.75078L22.5 6.75ZM13.5 9H22.5C22.7672 9.17578 23.0695 9.37266 23.4141 9.59062C27.4008 12.143 36 17.6414 36 29.25C36 32.9766 32.9766 36 29.25 36H6.75C3.02344 36 0 32.9766 0 29.25C0 17.6414 8.59922 12.143 12.5859 9.59062C12.9234 9.37266 13.2328 9.17578 13.5 9ZM19.4062 15.1875C19.4062 14.4141 18.7734 13.7812 18 13.7812C17.2266 13.7812 16.5938 14.4141 16.5938 15.1875V16.1719C16.0594 16.2914 15.525 16.4813 15.0328 16.7695C14.0555 17.3531 13.2117 18.3727 13.2188 19.8562C13.2258 21.2836 14.0625 22.1836 14.9555 22.718C15.7289 23.182 16.6922 23.4773 17.4586 23.7023L17.5781 23.7375C18.4641 24.0047 19.1109 24.2156 19.5469 24.4898C19.9055 24.7148 19.9547 24.8695 19.9617 25.0664C19.9688 25.418 19.8352 25.6289 19.5469 25.8047C19.1953 26.0227 18.6398 26.1562 18.0422 26.1352C17.2617 26.107 16.5305 25.8609 15.5742 25.5375C15.4125 25.4813 15.2438 25.425 15.068 25.3687C14.3297 25.1227 13.5352 25.5234 13.2891 26.2547C13.043 26.9859 13.4438 27.7875 14.175 28.0336C14.3086 28.0758 14.4563 28.125 14.6039 28.1812C15.1875 28.3852 15.8625 28.6172 16.5867 28.7719V29.7984C16.5867 30.5719 17.2195 31.2047 17.993 31.2047C18.7664 31.2047 19.3992 30.5719 19.3992 29.7984V28.8281C19.9617 28.7086 20.5242 28.5117 21.0305 28.1953C22.0359 27.5695 22.7953 26.5008 22.7742 25.0312C22.7531 23.6039 21.9516 22.6828 21.0445 22.1062C20.2359 21.6 19.2234 21.2906 18.4359 21.0516L18.3867 21.0375C17.4867 20.7633 16.8469 20.5664 16.3969 20.2992C16.0312 20.0813 16.0242 19.9547 16.0242 19.8281C16.0242 19.568 16.1227 19.3711 16.4602 19.1742C16.8398 18.9492 17.4164 18.8156 17.9719 18.8227C18.6469 18.8297 19.3922 18.9773 20.1656 19.1883C20.918 19.3852 21.6844 18.9422 21.8883 18.1898C22.0922 17.4375 21.6422 16.6711 20.8898 16.4672C20.4328 16.3477 19.9266 16.2281 19.4062 16.1367V15.1594V15.1875Z" fill="#FF6600"/>
</g>
<defs>
<clipPath id="clip0_22_82">
<rect width="36" height="36" fill="white"/>
</clipPath>
</defs>
</svg>
