<svg width="36" height="36" viewBox="0 0 36 36" fill="none" xmlns="http://www.w3.org/2000/svg">
<path d="M18 0C27.9416 0 36 8.05838 36 18C36 27.9416 27.9416 36 18 36C8.05838 36 0 27.9416 0 18C0 8.05838 8.05838 0 18 0ZM21.771 6.255C21.4965 6.12 21.222 6.255 21.1545 6.52838C21.0859 6.597 21.0859 6.66563 21.0859 6.80175V7.758L21.0971 7.875C21.1559 8.10645 21.2981 8.308 21.4965 8.44088C26.8447 10.3534 29.5875 16.2934 27.5985 21.5505C26.5702 24.4193 24.3079 26.6029 21.4965 27.6278C21.222 27.7639 21.0859 27.9686 21.0859 28.3106V29.2669L21.0915 29.3659C21.1022 29.4739 21.1473 29.5756 21.2203 29.6561C21.2932 29.7365 21.39 29.7913 21.4965 29.8125C21.5651 29.8125 21.7024 29.8125 21.771 29.745C23.314 29.2631 24.7465 28.4808 25.9859 27.4431C27.2253 26.4053 28.2472 25.1326 28.9928 23.6983C29.7383 22.264 30.1928 20.6964 30.33 19.0857C30.4672 17.475 30.2844 15.8531 29.7922 14.3134C28.5592 10.4209 25.542 7.4835 21.771 6.255ZM14.5035 6.1875C14.4349 6.1875 14.2976 6.1875 14.229 6.255C12.686 6.73686 11.2535 7.51919 10.0141 8.55694C8.77468 9.5947 7.75277 10.8674 7.00723 12.3017C6.26168 13.736 5.80722 15.3036 5.67001 16.9143C5.5328 18.525 5.71556 20.1469 6.20775 21.6866C7.44075 25.5116 10.3894 28.4479 14.229 29.6764C14.5035 29.8125 14.778 29.6764 14.8455 29.403C14.9141 29.3355 14.9141 29.2657 14.9141 29.1296V28.1734L14.9029 28.0834C14.8556 27.8932 14.679 27.6761 14.5035 27.5591C9.15525 25.6466 6.4125 19.7066 8.4015 14.4495C9.42975 11.5807 11.6921 9.39713 14.5035 8.37225C14.778 8.23612 14.9141 8.03137 14.9141 7.68937V6.73313L14.9085 6.63412C14.8978 6.5261 14.8527 6.42437 14.7797 6.34395C14.7068 6.26353 14.61 6.20868 14.5035 6.1875ZM18.4804 9.738H17.451L17.352 9.747C17.127 9.792 16.9627 9.9855 16.902 10.2847V11.8553L16.6691 11.8912C14.7476 12.2332 13.5439 13.5596 13.5439 15.201C13.5439 17.4533 14.9141 18.3409 17.7941 18.6829C19.7145 19.0238 20.331 19.4344 20.331 20.5268C20.331 21.618 19.3714 22.3695 18.0686 22.3695C16.2855 22.3695 15.669 21.6191 15.4631 20.5942C15.3956 20.322 15.1886 20.1847 14.9827 20.1847H13.8172L13.7284 20.1926C13.6171 20.2099 13.516 20.2672 13.4441 20.3538C13.3722 20.4404 13.3345 20.5504 13.338 20.6629V20.7304L13.3751 20.9329C13.7014 22.5349 14.7994 23.6812 16.9718 24.0086V25.6478L16.9807 25.7467C17.0257 25.9695 17.2204 26.1338 17.5208 26.1934H18.549L18.648 26.1844C18.873 26.1394 19.0373 25.9459 19.098 25.6478V24.0075L19.3309 23.9625C21.258 23.5552 22.5259 22.1614 22.5259 20.3884C22.5259 17.9989 21.0859 17.1799 18.2059 16.8379C16.1483 16.5645 15.7376 16.0189 15.7376 15.0626C15.7376 14.1064 16.4239 13.4921 17.7941 13.4921C19.0282 13.4921 19.7145 13.9016 20.0565 14.9265C20.0924 15.0254 20.1576 15.111 20.2435 15.172C20.3293 15.2329 20.4316 15.2661 20.5369 15.2674H21.6337L21.7226 15.2606C21.834 15.2429 21.9351 15.1853 22.0071 15.0986C22.0791 15.0119 22.1172 14.9019 22.1141 14.7892V14.7218L22.0725 14.5271C21.9036 13.8278 21.5185 13.1996 20.9719 12.7318C20.4254 12.2641 19.7452 11.9806 19.0282 11.9216V10.2847L19.0193 10.1858C18.9743 9.96187 18.7808 9.79763 18.4804 9.738Z" fill="#FF6600"/>
</svg>
